<?xml version="1.0" encoding="UTF-8" standalone="no"?>
<svg width="282px" height="41px" viewBox="0 0 282 41" version="1.1" xmlns="http://www.w3.org/2000/svg" xmlns:xlink="http://www.w3.org/1999/xlink" xmlns:sketch="http://www.bohemiancoding.com/sketch/ns">
    <!-- Generator: Sketch 3.0.4 (8053) - http://www.bohemiancoding.com/sketch -->
    <title>logo-purpose</title>
    <desc>Created with Sketch.</desc>
    <defs></defs>
    <g id="Page-1" stroke="none" stroke-width="1" fill="none" fill-rule="evenodd" sketch:type="MSPage">
        <g id="Desktop-HD" sketch:type="MSArtboardGroup" transform="translate(-577.000000, -492.000000)" fill="#FF0079">
            <path d="M825.06806,495.482872 L857.831888,495.482872 L857.831888,492.584321 L825.06806,492.584321 L825.06806,495.482872 Z M825.06806,513.453887 L857.831888,513.453887 L857.831888,510.845191 L825.06806,510.845191 L825.06806,513.453887 Z M825.06806,531.424901 L857.831888,531.424901 L857.831888,528.816206 L825.06806,528.816206 L825.06806,531.424901 Z M796.21139,495.193017 L815.951169,495.193017 L815.951169,492.584321 L796.177487,492.584321 C790.591681,492.584321 786.063436,497.191278 786.063436,502.874177 C786.063436,508.557075 790.591681,513.453887 796.177487,513.453887 L808.642271,513.453887 C812.841454,513.453887 816.257724,516.862872 816.257724,521.135046 C816.257724,525.40722 812.841454,528.816206 808.642271,528.816206 L788.885398,528.816206 L788.885398,531.424901 L808.713212,531.424901 C814.299017,531.424901 818.827263,526.817945 818.827263,521.135046 C818.827263,515.452148 814.299017,510.845191 808.713212,510.845191 L796.21139,510.845191 C792.012207,510.845191 788.595652,507.291278 788.595652,503.019104 C788.595652,498.74693 792.012207,495.193017 796.21139,495.193017 Z M760.225026,492.128379 C749.401567,492.128379 740.627414,501.055046 740.627414,512.06635 C740.627414,523.077945 749.401567,532.004611 760.225026,532.004611 C771.048486,532.004611 779.822639,523.077945 779.822639,512.06635 C779.822639,501.055046 771.048486,492.128379 760.225026,492.128379 Z M760.225026,529.395916 C750.832919,529.395916 743.19154,521.622003 743.19154,512.06635 C743.19154,502.510988 750.832919,494.737075 760.225026,494.737075 C769.617134,494.737075 777.258513,502.510988 777.258513,512.06635 C777.258513,521.622003 769.617134,529.395916 760.225026,529.395916 Z M760.225026,501.983452 C754.751473,501.983452 750.314111,506.497655 750.314111,512.06635 C750.314111,517.635046 754.751473,522.149539 760.225026,522.149539 C765.69858,522.149539 770.135942,517.635046 770.135942,512.06635 C770.135942,506.497655 765.69858,501.983452 760.225026,501.983452 Z M760.225026,519.540843 C756.174278,519.540843 752.878237,516.1878 752.878237,512.06635 C752.878237,507.945191 756.174278,504.592148 760.225026,504.592148 C764.27606,504.592148 767.571816,507.945191 767.571816,512.06635 C767.571816,516.1878 764.27606,519.540843 760.225026,519.540843 Z M648.998099,492.584321 L648.998099,514.676206 C648.998099,522.712727 642.672686,529.395916 634.753527,529.395916 L634.657515,529.395916 C626.762857,529.395916 620.222912,522.712727 620.222912,514.676206 L620.222912,492.584321 L617.658786,492.584321 L617.658786,514.676206 C617.658786,524.133017 625.362274,532.004611 634.657515,532.004611 L634.753242,532.004611 C644.048482,532.004611 651.562225,524.133017 651.562225,514.676206 L651.562225,492.584321 L648.998099,492.584321 Z M700.725915,492.681713 L720.241761,492.681713 C728.619899,492.681713 734.386617,497.054177 734.386617,504.526061 L734.386617,504.636785 C734.386617,512.772727 727.477438,516.979394 719.534917,516.979394 L703.554716,516.979394 L703.554716,531.424901 L700.725915,531.424901 L700.725915,492.681713 Z M719.697881,514.322582 C726.770309,514.322582 731.557532,510.558814 731.557532,504.802872 L731.557532,504.692148 C731.557532,498.548669 726.878857,495.338524 720.02438,495.338524 L703.554716,495.338524 L703.554716,514.322582 L719.697881,514.322582 Z M657.777951,492.681713 L679.470169,492.681713 C684.148558,492.681713 687.902438,494.176206 690.187074,496.500843 C691.982532,498.32722 693.070576,500.928669 693.070576,503.695916 L693.070576,503.80664 C693.070576,510.282292 688.337485,513.990408 681.918054,514.875916 L694.484834,531.424901 L690.894488,531.424901 L678.762755,515.374177 L660.606751,515.374177 L660.606751,531.424901 L657.777951,531.424901 L657.777951,492.681713 Z M690.241491,503.917365 L690.241491,503.80664 C690.241491,498.604032 686.215813,495.338524 679.306919,495.338524 L660.606751,495.338524 L660.606751,512.772727 L679.14367,512.772727 C685.508684,512.772727 690.241491,509.50722 690.241491,503.917365 Z M577.731931,492.681713 L597.248061,492.681713 C605.626199,492.681713 611.392633,497.054177 611.392633,504.526061 L611.392633,504.636785 C611.392633,512.772727 604.483739,516.979394 596.540932,516.979394 L580.561016,516.979394 L580.561016,531.424901 L577.731931,531.424901 L577.731931,492.681713 Z M596.704181,514.322582 C603.776325,514.322582 608.563832,510.558814 608.563832,504.802872 L608.563832,504.692148 C608.563832,498.548669 603.885158,495.338524 597.03068,495.338524 L580.561016,495.338524 L580.561016,514.322582 L596.704181,514.322582 Z" id="logo-purpose" sketch:type="MSShapeGroup"></path>
        </g>
    </g>
</svg>