<?xml version="1.0" encoding="UTF-8" standalone="no"?>
<svg width="260px" height="73px" viewBox="0 0 260 73" version="1.1" xmlns="http://www.w3.org/2000/svg" xmlns:xlink="http://www.w3.org/1999/xlink" xmlns:sketch="http://www.bohemiancoding.com/sketch/ns">
    <!-- Generator: Sketch 3.0.4 (8053) - http://www.bohemiancoding.com/sketch -->
    <title>logo-purpose</title>
    <desc>Created with Sketch.</desc>
    <defs></defs>
    <g id="Page-1" stroke="none" stroke-width="1" fill="none" fill-rule="evenodd" sketch:type="MSPage">
        <g id="Desktop-HD" sketch:type="MSArtboardGroup" transform="translate(-590.000000, -476.000000)">
            <g id="logo-purpose" sketch:type="MSLayerGroup" transform="translate(590.000000, 476.000000)">
                <rect id="Rectangle-2" stroke="#FFFFFF" stroke-width="2" sketch:type="MSShapeGroup" x="0" y="0" width="260" height="73"></rect>
                <path d="M205.882488,24.4424967 L229.545252,24.4424967 L229.545252,22.3265547 L205.882488,22.3265547 L205.882488,24.4424967 Z M205.882488,37.5613373 L229.545252,37.5613373 L229.545252,35.6569895 L205.882488,35.6569895 L205.882488,37.5613373 Z M205.882488,50.6801779 L229.545252,50.6801779 L229.545252,48.77583 L205.882488,48.77583 L205.882488,50.6801779 Z M185.04156,24.2309025 L199.298066,24.2309025 L199.298066,22.3265547 L185.017074,22.3265547 C180.982881,22.3265547 177.712481,25.6896329 177.712481,29.8381489 C177.712481,33.9866648 180.982881,37.5613373 185.017074,37.5613373 L194.019418,37.5613373 C197.052161,37.5613373 199.519468,40.0498967 199.519468,43.1685837 C199.519468,46.2872706 197.052161,48.77583 194.019418,48.77583 L179.750565,48.77583 L179.750565,50.6801779 L194.070653,50.6801779 C198.104846,50.6801779 201.375246,47.3170996 201.375246,43.1685837 C201.375246,39.0200677 198.104846,35.6569895 194.070653,35.6569895 L185.04156,35.6569895 C182.008816,35.6569895 179.541304,33.0626329 179.541304,29.943946 C179.541304,26.825259 182.008816,24.2309025 185.04156,24.2309025 Z M159.051408,21.993717 C151.234465,21.993717 144.897577,28.5101837 144.897577,36.5484358 C144.897577,44.5868996 151.234465,51.1033663 159.051408,51.1033663 C166.868351,51.1033663 173.205239,44.5868996 173.205239,36.5484358 C173.205239,28.5101837 166.868351,21.993717 159.051408,21.993717 Z M159.051408,49.1990184 C152.268219,49.1990184 146.749445,43.5240619 146.749445,36.5484358 C146.749445,29.5730213 152.268219,23.8980648 159.051408,23.8980648 C165.834597,23.8980648 171.353371,29.5730213 171.353371,36.5484358 C171.353371,43.5240619 165.834597,49.1990184 159.051408,49.1990184 Z M159.051408,29.1879199 C155.098286,29.1879199 151.893525,32.483288 151.893525,36.5484358 C151.893525,40.6135837 155.098286,43.9091634 159.051408,43.9091634 C163.00453,43.9091634 166.209291,40.6135837 166.209291,36.5484358 C166.209291,32.483288 163.00453,29.1879199 159.051408,29.1879199 Z M159.051408,42.0048155 C156.125867,42.0048155 153.745393,39.5570938 153.745393,36.5484358 C153.745393,33.5399895 156.125867,31.0922677 159.051408,31.0922677 C161.977154,31.0922677 164.357423,33.5399895 164.357423,36.5484358 C164.357423,39.5570938 161.977154,42.0048155 159.051408,42.0048155 Z M78.7208496,22.3265547 L78.7208496,38.45363 C78.7208496,44.3202909 74.1524957,49.1990184 68.4331027,49.1990184 L68.3637605,49.1990184 C62.6620631,49.1990184 57.9387695,44.3202909 57.9387695,38.45363 L57.9387695,22.3265547 L56.086901,22.3265547 L56.086901,38.45363 C56.086901,45.3571025 61.6505313,51.1033663 68.3637605,51.1033663 L68.4328969,51.1033663 C75.1461261,51.1033663 80.5727181,45.3571025 80.5727181,38.45363 L80.5727181,22.3265547 L78.7208496,22.3265547 Z M116.079828,22.3976503 L130.174605,22.3976503 C136.225482,22.3976503 140.390335,25.5895489 140.390335,31.0440242 L140.390335,31.1248532 C140.390335,37.0640909 135.400372,40.1349576 129.664106,40.1349576 L118.12285,40.1349576 L118.12285,50.6801779 L116.079828,50.6801779 L116.079828,22.3976503 Z M129.781803,38.1954851 C134.889668,38.1954851 138.347106,35.4479344 138.347106,31.2460967 L138.347106,31.1652677 C138.347106,26.6805286 134.968064,24.3371228 130.017608,24.3371228 L118.12285,24.3371228 L118.12285,38.1954851 L129.781803,38.1954851 Z M85.0618532,22.3976503 L100.728455,22.3976503 C104.107292,22.3976503 106.818428,23.48863 108.468442,25.1856155 C109.765162,26.5188706 110.550971,28.4179286 110.550971,30.4380184 L110.550971,30.5188474 C110.550971,35.2460735 107.132628,37.9529982 102.496372,38.5994184 L111.57238,50.6801779 L108.979352,50.6801779 L100.217545,38.9631489 L87.1048757,38.9631489 L87.1048757,50.6801779 L85.0618532,50.6801779 L85.0618532,22.3976503 Z M108.507743,30.5996764 L108.507743,30.5188474 C108.507743,26.7209431 105.60031,24.3371228 100.610553,24.3371228 L87.1048757,24.3371228 L87.1048757,37.0640909 L100.49265,37.0640909 C105.089605,37.0640909 108.507743,34.6802706 108.507743,30.5996764 Z M27.250839,22.3976503 L41.3458218,22.3976503 C47.3966994,22.3976503 51.5613459,25.5895489 51.5613459,31.0440242 L51.5613459,31.1248532 C51.5613459,37.0640909 46.571589,40.1349576 40.8351177,40.1349576 L29.2940673,40.1349576 L29.2940673,50.6801779 L27.250839,50.6801779 L27.250839,22.3976503 Z M40.95302,38.1954851 C46.0606791,38.1954851 49.5183234,35.4479344 49.5183234,31.2460967 L49.5183234,31.1652677 C49.5183234,26.6805286 46.1392806,24.3371228 41.1888246,24.3371228 L29.2940673,24.3371228 L29.2940673,38.1954851 L40.95302,38.1954851 Z" fill="#FFFFFF" sketch:type="MSShapeGroup"></path>
            </g>
        </g>
    </g>
</svg>